<svg class="filter-icon"
  x="0px"
  y="0px"
  viewBox="0 0 100 100">
  <g transform="translate(0,-952.36218)">
    <path d="m 82.562502,961.39359 -31.843753,6.9688 -25.71875,0 c -11.24411,-10e-6 -20.0000005,10.94399 -20.0000005,22.00001 0,11.056 8.7558805,22 20.0000005,22 l 1.4375,0 7.625,29.5 c 0.21983,0.8511 1.058439,1.5004 1.9375,1.5 l 12,0 c 1.21594,5e-4 2.24133,-1.3226 1.9375,-2.5 l -7.34375,-28.5 8.25,0 31.718752,6.9375 c 1.16072,0.2601 2.429,-0.748 2.4375,-1.9375 l 0,-17 3,0 c 3.91047,0 7,-3.1901 7,-7 l 0,-6 c 0,-3.80993 -3.08955,-7 -7,-7 l -3,0 0,-17.00001 c -0.0363,-1.36605 -1.20752,-2.17382 -2.4375,-1.9688 z m -1.562503,53.46881 -28,-6.125 0,-36.78125 28,-6.12501 m -56,6.53126 24,0 0,36 -24,0 c -8.5409,0 -16.0000005,-9.1121 -16.0000005,-18 0,-8.88794 7.4590905,-18.00001 16.0000005,-18 z m 60.000002,12 3,0 c 1.92681,0 3,1.15205 3,3 l 0,6 c 0,1.8479 -1.07321,3 -3,3 l -3,0 z m -54.406253,28 7.84375,0 6.96875,27 -7.84375,0 z"/>
  </g>
</svg>
