<svg class="filter-icon" version="1.1" x="0px" y="0px" viewBox="0 0 100 100" xml:space="preserve">
  <path d="M86.902,41.524c-0.235-0.724-0.861-1.251-1.615-1.361L62.144,36.8l-10.35-20.972c-0.337-0.683-1.032-1.115-1.794-1.115  s-1.457,0.432-1.794,1.115L37.856,36.8l-23.144,3.363c-0.754,0.109-1.38,0.637-1.615,1.361s-0.039,1.519,0.506,2.05l16.747,16.324  l-3.953,23.051c-0.128,0.75,0.181,1.509,0.796,1.956c0.617,0.448,1.434,0.506,2.106,0.152L50,74.175l20.7,10.883  c0.293,0.153,0.612,0.229,0.931,0.229c0.414,0,0.827-0.129,1.176-0.382c0.615-0.447,0.924-1.206,0.796-1.956l-3.953-23.051  l16.747-16.324C86.941,43.043,87.138,42.248,86.902,41.524z M66.104,57.768c-0.471,0.46-0.686,1.122-0.575,1.771l3.446,20.093  l-18.044-9.486c-0.291-0.153-0.611-0.229-0.931-0.229s-0.64,0.076-0.931,0.229l-18.044,9.486l3.446-20.093  c0.11-0.648-0.104-1.311-0.575-1.771L19.298,43.539l20.174-2.932c0.652-0.094,1.215-0.503,1.507-1.094L50,21.232l9.021,18.281  c0.292,0.59,0.854,1,1.507,1.094l20.174,2.932L66.104,57.768z"/>
</svg>
