<svg class="filter-icon"
  x="0px"
  y="0px"
  viewBox="0 0 150 150"
  xml:space="preserve">
    <g>
      <g>
        <path d="M129.2,32.2H20.8c-3.2,0-5.8,2.6-5.8,5.8v66.8c0,3.2,2.6,5.8,5.8,5.8h108.3c3.2,0,5.8-2.6,5.8-5.8V38.1      C135,34.8,132.4,32.2,129.2,32.2z M131,104.9c0,1-0.8,1.8-1.8,1.8H20.8c-1,0-1.8-0.8-1.8-1.8V38.1c0-1,0.8-1.8,1.8-1.8h108.3      c1,0,1.8,0.8,1.8,1.8V104.9z"/></g>
      <g>
        <rect x="41.1" y="113.8" width="67.9" height="4"/>
      </g>
      <path d="M127.9,69.2v4.3l-27.5-10.3c-0.9,0.8-2,1.4-3.3,1.4c-1.2,0-2.4-0.5-3.2-1.3l-19.7,8.2C74.1,73.9,72,76,69.4,76     c-2.6,0-4.8-2.1-4.8-4.8c0-0.4,0.1-0.7,0.1-1L48.4,57.8c-0.7,0.3-1.4,0.6-2.2,0.6c-0.7,0-1.4-0.2-2-0.5L22.1,76.5v-5.3l19.5-16.4     c-0.1-0.4-0.2-0.8-0.2-1.2c0-2.6,2.1-4.8,4.8-4.8s4.8,2.1,4.8,4.8c0,0.3,0,0.7-0.1,1L67.2,67c0.7-0.4,1.4-0.6,2.2-0.6     c1.2,0,2.4,0.5,3.2,1.3l19.7-8.2c0.1-2.5,2.2-4.5,4.7-4.5c2.5,0,4.6,1.9,4.7,4.4L127.9,69.2z"/><polygon points="60,71.4 56,68.4 56,103.7 60,103.7    "/>
      <path d="M94,67.8c-0.1,0-0.1,0-0.2-0.1L90,69.4v34.4h4V67.8z"/>
      <path d="M77,76.1c-1,1.4-2.4,2.5-4,3.2v24.4h4V76.1z"/>
      <polygon points="127.9,77.6 123.9,76.1 123.9,103.7 127.9,103.7    "/>
      <polygon points="110.9,71.3 106.9,69.8 106.9,103.7 110.9,103.7    "/>
      <polygon points="26.1,78.5 22.1,81.9 22.1,103.7 26.1,103.7    "/>
      <polygon points="43.1,64.4 39.1,67.7 39.1,103.7 43.1,103.7    "/>
    </g>
</svg>
