<svg class="filter-icon"
  version="1.1"
  x="0px"
  y="0px"
  viewBox="0 0 100 100">
  <g transform="translate(0,-952.36218)">
    <path
    style="text-indent:0;text-transform:none;direction:ltr;block-progression:tb;baseline-shift:baseline;color:#000000;enable-background:accumulate;"
    d="m 8,971.36215 0,2 0,43.99995 0,2.0001 2,0 80,0 2,0 0,-2.0001 0,-43.99995 0,-2 -2,0 -80,0 -2,0 z m 4,4 76,0 0,39.99995 -76,0 0,-39.99995 z m 29.84375,5.93746 a 1.9620838,2.0390574 0 0 0 -1.8125,2.0625 l 0,23.99999 a 1.9620838,2.0390574 0 0 0 2.9375,1.75 l 20,-11.99999 a 1.9620838,2.0390574 0 0 0 0,-3.5312 l -20,-12 a 1.9620838,2.0390574 0 0 0 -1.125,-0.2813 z m 2.125,5.5938 14.09375,8.4687 -14.09375,8.43749 0,-16.90619 z M 17,1023.3622 c -2.76142,0 -5,2.2386 -5,5 0,2.7614 2.23858,5 5,5 2.04569,0 3.78823,-1.2405 4.5625,-3 l 64.4375,0 c 1.10457,0 2,-0.8954 2,-2 0,-1.1046 -0.89543,-2 -2,-2 l -64.4375,0 c -0.77427,-1.7595 -2.51681,-3 -4.5625,-3 z"
  </g>
</svg>
