<svg class="filter-icon" x="0px" y="0px" viewBox="0 0 100 100" xml:space="preserve">
  <g><path
    fill="none"
    d="M76.84,35.093c-9.569-5.196-22.483-5.533-33.056-4.916c-5.451,0.318-11.012,0.808-16.258,2.421   c-1.958,0.603-6.081,1.587-7.041,3.756c-2.397,5.409-2.788,12.285-3.7,18.08c-0.341,2.163-1.121,4.684-0.359,6.84   c1.876,5.305,6.744,8.55,12.242,9.098c1.9,0.047,5.052-1.702,7.146-2.087c2.889-0.528,5.785-1.041,8.723-1.211   c5.416-0.313,10.877-0.238,16.252,0.563c6.516,0.973,13.072,4.818,18.729,0.213c6.315-5.145,3.891-11.597,2.665-18.433   C81.369,44.884,81.422,37.583,76.84,35.093z"/><path
    d="M98.361,39.187c-2.497,0-4.994,0-7.492,0c1.334,5.453,1.835,11.375,2.672,16.623c0.008,0.052,0.013,0.101,0.021,0.153   c1.556,0,3.114,0,4.67,0c0.007,0,0.012-0.002,0.017-0.002c0.066-0.004,0.126-0.018,0.191-0.031c0.041-0.01,0.086-0.016,0.124-0.029   c0.292-0.099,0.531-0.304,0.531-0.588c0-5.194,0-10.39,0-15.583C99.095,39.312,98.717,39.187,98.361,39.187z"/><path d="M0.906,39.837c0,5.195,0,10.391,0,15.584c0,0.417,0.376,0.542,0.734,0.542c1.636,0,3.272,0,4.908,0   c0.815-5.572,1.582-11.297,2.967-16.776c-2.582,0-5.165,0-7.747,0C1.448,39.187,0.906,39.457,0.906,39.837z"/><path
    d="M81.593,32.126c-10.996-5.973-25.734-6.41-37.897-5.798c-6.623,0.333-13.382,0.909-19.763,2.831   c-0.126,0.038-0.263,0.078-0.4,0.117c-3.794,1.37-7.166,3.398-9.019,6.52c-0.178,0.299-0.334,0.62-0.482,0.95   c-1.949,5.877-2.38,12.849-3.299,18.716c-0.36,2.302-1.158,4.938-0.439,7.243c2.027,6.499,8.052,10.547,14.683,11.171   c2.442,0.059,6.466-2.005,9.086-2.551c3.427-0.713,6.962-1.182,10.458-1.351c5.865-0.284,11.767-0.162,17.586,0.68   c5.367,0.779,10.719,3.621,15.817,2.825c3.887-1.353,7.593-3.875,9.804-7.18c0.967-1.444,1.565-2.961,1.922-4.522   C89.952,58,88.863,53.9,88.089,49.539C87.105,44.004,87.18,35.161,81.593,32.126z M79.518,67.851   c-5.656,4.605-12.213,0.76-18.729-0.213c-5.375-0.802-10.836-0.877-16.252-0.563c-2.938,0.17-5.834,0.683-8.723,1.211   c-2.094,0.385-5.246,2.134-7.146,2.087c-5.498-0.548-10.366-3.793-12.242-9.098c-0.762-2.156,0.018-4.677,0.359-6.84   c0.912-5.795,1.303-12.67,3.7-18.08c0.96-2.169,5.083-3.153,7.041-3.756c5.246-1.613,10.807-2.104,16.258-2.421   c10.572-0.617,23.486-0.28,33.056,4.916c4.582,2.489,4.529,9.791,5.343,14.325C83.408,56.254,85.833,62.706,79.518,67.851z"/></g>
</svg>
