<?xml version="1.0" encoding="UTF-8"?>
<svg width="347px" height="40px" viewBox="0 0 347 40" version="1.1" xmlns="http://www.w3.org/2000/svg" xmlns:xlink="http://www.w3.org/1999/xlink">
    <!-- Generator: Sketch 43.1 (39012) - http://www.bohemiancoding.com/sketch -->
    <title>Slice 1</title>
    <desc>Created with Sketch.</desc>
    <defs></defs>
    <g id="Page-1" stroke="none" stroke-width="1" fill="none" fill-rule="evenodd">
        <g id="rtbhouse_logo" transform="translate(0.000000, -74.000000)">
            <polygon id="Fill-1" fill="#DC3E38" points="315.674 96.103 346.234 96.103 346.234 91.917 315.674 91.917"></polygon>
            <polygon id="Fill-2" fill="#DC3E38" points="315.674 79.764 346.234 79.764 346.234 75.579 315.674 75.579"></polygon>
            <path d="M22.874,87.338 C22.874,83.72 20.16,81.403 16.43,81.403 L7.326,81.403 L7.326,93.388 L16.43,93.388 C20.16,93.388 22.874,91.014 22.874,87.338 Z M22.253,113.289 L13.941,99.212 L7.326,99.212 L7.326,113.289 L0.711,113.289 L0.711,75.579 L17.278,75.579 C24.739,75.579 29.659,80.385 29.659,87.395 C29.659,94.068 25.249,97.741 20.669,98.477 L29.943,113.289 L22.253,113.289 L22.253,113.289 Z" id="Fill-3" fill="#DC3E38"></path>
            <polyline id="Fill-4" fill="#DC3E38" points="43.568 113.289 43.568 81.403 32.148 81.403 32.148 75.579 61.605 75.579 61.605 81.403 50.182 81.403 50.182 113.289 43.568 113.289"></polyline>
            <path d="M89.308,102.208 C89.308,99.38 87.331,96.95 83.6,96.95 L72.687,96.95 L72.687,107.466 L83.6,107.466 C87.161,107.466 89.308,105.487 89.308,102.208 Z M88.574,86.264 C88.574,83.494 86.653,81.403 83.316,81.403 L72.687,81.403 L72.687,91.126 L83.316,91.126 C86.653,91.126 88.574,89.147 88.574,86.264 Z M66.072,113.289 L66.072,75.579 L84.617,75.579 C91.571,75.579 95.359,79.875 95.359,85.191 C95.359,89.882 92.307,93.105 88.8,93.84 C92.872,94.463 96.095,98.477 96.095,103.057 C96.095,108.937 92.25,113.289 85.125,113.289 L66.072,113.289 L66.072,113.289 Z" id="Fill-5" fill="#DC3E38"></path>
            <polyline id="Fill-6" fill="#362434" points="135.395 113.289 135.395 95.989 113.345 95.989 113.345 113.289 108.652 113.289 108.652 75.579 113.345 75.579 113.345 91.806 135.395 91.806 135.395 75.579 140.088 75.579 140.088 113.289 135.395 113.289"></polyline>
            <path d="M178.873,94.463 C178.873,85.643 173.39,79.141 164.966,79.141 C156.485,79.141 151.113,85.643 151.113,94.463 C151.113,103.226 156.485,109.784 164.966,109.784 C173.39,109.784 178.873,103.226 178.873,94.463 Z M146.252,94.463 C146.252,83.324 153.827,74.957 164.966,74.957 C176.103,74.957 183.736,83.324 183.736,94.463 C183.736,105.6 176.103,113.969 164.966,113.969 C153.827,113.969 146.252,105.6 146.252,94.463 L146.252,94.463 Z" id="Fill-7" fill="#362434"></path>
            <path d="M189.902,98.647 L189.902,75.579 L194.65,75.579 L194.65,98.532 C194.65,105.431 198.326,109.784 205.281,109.784 C212.235,109.784 215.965,105.431 215.965,98.532 L215.965,75.579 L220.716,75.579 L220.716,98.589 C220.716,107.975 215.515,113.969 205.281,113.969 C195.103,113.969 189.902,107.919 189.902,98.647" id="Fill-8" fill="#362434"></path>
            <path d="M226.143,107.975 L228.971,104.356 C231.402,107.184 235.473,109.784 240.787,109.784 C247.516,109.784 249.664,106.166 249.664,103.226 C249.664,93.5 227.331,98.928 227.331,85.472 C227.331,79.252 232.872,74.957 240.336,74.957 C246.045,74.957 250.512,76.935 253.677,80.27 L250.851,83.72 C248.024,80.554 244.067,79.198 239.94,79.198 C235.473,79.198 232.193,81.629 232.193,85.191 C232.193,93.672 254.526,88.809 254.526,102.887 C254.526,108.315 250.795,113.969 240.617,113.969 C234.116,113.969 229.254,111.48 226.143,107.975" id="Fill-9" fill="#362434"></path>
            <polyline id="Fill-10" fill="#362434" points="260.407 113.289 260.407 75.579 285.114 75.579 285.114 79.763 265.1 79.763 265.1 91.917 285.114 91.917 285.114 96.103 265.1 96.103 265.1 109.106 285.114 109.106 285.114 113.289 260.407 113.289"></polyline>
        </g>
    </g>
</svg>