<svg class="hor-logo" width="922px" height="224px" viewBox="0 0 922 224" version="1.1" xmlns="http://www.w3.org/2000/svg" xmlns:xlink="http://www.w3.org/1999/xlink">
    <g>
        <g class="hor-logo-the">
            <path d="M440,7 L440,26 L433,26 L433,7 L426,7 L426,1 L447,1 L447,7 L440,7 Z M476,26 L476,16 L468,16 L468,26 L461,26 L461,1 L468,1 L468,10 L476,10 L476,1 L483,1 L483,26 L476,26 Z M500,26 L500,1 L517,1 L517,6 L507,6 L507,11 L517,11 L517,16 L507,16 L507,21 L518,21 L518,26 L500,26 Z" class="path-1"></path>
        </g>
        <polygon class="hor-logo-border" points="549 0 922 0 922 224 0 224 0 0 394 0 394 15 15 15 15 209 907 209 907 15 549 15"></polygon>
        <g class="hor-logo-letters" transform="translate(76.000000, 76.000000)">
            <path class="hor-logo-S" d="M28.3809524,72 C25.65078,72 22.9682671,71.7593607 20.3333333,71.2780749 C17.6983995,70.796789 15.1587424,70.0909137 12.7142857,69.1604278 C10.269829,68.2299419 7.96826476,67.1390437 5.80952381,65.8877005 C4.45077773,65.1000851 3.18008015,64.2552775 1.99741658,63.3532673 C1.30109459,62.8221867 1.5344045,62.9872588 1.5344045,62.9872588 C0.686976294,62.2766207 0.60225768,61.0372628 1.349259,60.2145834 L13.1434618,47.2255189 C13.5113177,46.8203958 14.1184413,46.8125692 14.5152385,47.2137553 C14.5152385,47.2137553 14.3835121,47.0949196 14.6947639,47.3874735 C16.1548921,48.7598879 17.9709113,50.0014879 20.1428571,51.1122995 C22.777791,52.4598998 25.4920495,53.1336898 28.2857143,53.1336898 C29.5555619,53.1336898 30.7142805,52.9090932 31.7619048,52.459893 C32.809529,52.0106929 33.3333333,51.1764767 33.3333333,49.9572193 C33.3333333,49.3155048 33.1587319,48.7700557 32.8095238,48.3208556 C32.4603157,47.8716555 31.8412743,47.4064195 30.952381,46.9251337 C30.0634876,46.4438479 28.8412776,45.9144414 27.2857143,45.3368984 C25.730151,44.7593554 23.7777895,44.0855653 21.4285714,43.315508 C19.1428457,42.5454507 16.9523914,41.6310213 14.8571429,40.5721925 C12.7618943,39.5133637 10.90477,38.2139114 9.28571429,36.6737968 C7.66665857,35.1336821 6.38095714,33.2887808 5.42857143,31.1390374 C4.47618571,28.9892941 4,26.4064322 4,23.3903743 C4,19.155059 4.85713429,15.5615121 6.57142857,12.6096257 C8.28572286,9.65773925 10.49205,7.23530358 13.1904762,5.34224599 C15.8889024,3.4491884 18.9206181,2.08556567 22.2857143,1.2513369 C25.6508105,0.417108128 28.9841105,0 32.2857143,0 C36.730181,0 41.2539452,0.866301497 45.8571429,2.59893048 C49.7888968,4.07883021 53.3153005,6.12049577 56.4364294,8.72397395 C56.9694389,9.16858183 56.501078,8.77825134 56.501078,8.77825134 C57.3289098,9.51207238 57.3761581,10.7502466 56.609919,11.5403787 L44.603747,23.9209303 C44.2177082,24.3190066 43.6172792,24.3032049 43.2462666,23.8767689 C43.2462666,23.8767689 43.1559306,23.7475035 42.7515569,23.3403157 C41.4650934,22.0448994 39.9764874,21.0188113 38.2857143,20.2620321 C36.063481,19.2673747 34.063501,18.7700535 32.2857143,18.7700535 C30.6349124,18.7700535 29.3015924,19.0106928 28.2857143,19.4919786 C27.2698362,19.9732644 26.7619048,20.7593528 26.7619048,21.8502674 C26.7619048,22.8770105 27.285709,23.6470563 28.3333333,24.1604278 C29.3809576,24.6737994 31.0793533,25.3155042 33.4285714,26.0855615 C35.8412819,26.8556188 38.380939,27.7540056 41.047619,28.7807487 C43.714299,29.8074918 46.1745919,31.1390293 48.4285714,32.7754011 C50.682551,34.4117729 52.5396752,36.4171004 54,38.7914439 C55.4603248,41.1657873 56.1904762,44.1176294 56.1904762,47.6470588 C56.1904762,51.7540312 55.3809605,55.3315356 53.7619048,58.3796791 C52.142849,61.4278227 50.0158862,63.9625567 47.3809524,65.9839572 C44.7460186,68.0053577 41.7777943,69.513364 38.4761905,70.5080214 C35.1745867,71.5026788 31.809541,72 28.3809524,72 Z"></path>
            <path class="hor-logo-Y" d="M133,67.9926701 C133,69.1012878 132.102974,70 130.995053,70 L111.004947,70 C109.897645,70 109,69.1016617 109,67.9926701 L109,43 L85.0423902,3.70952 C84.466694,2.76537817 84.8949789,2 85.9970047,2 L108.9967,2 C109.550807,2 110.219729,2.39950758 110.479729,2.87223526 L121,22 L131.520271,2.87223526 C131.785218,2.39051303 132.451279,2 133.0033,2 L156.002995,2 C157.105911,2 157.533886,2.76442658 156.95761,3.70952 L133,43 L133,67.9926701 Z"></path>
            <path class="hor-logo-N" d="M186,3.99828427 C186,2.89466234 186.901627,2 188.000864,2 L207.996929,2 C208.55091,2 209.21995,2.39359396 209.488759,2.87462136 L228,36 L228,3.9999204 C228,2.89539486 228.889674,2 229.991155,2 L248.008845,2 C249.10853,2 250,2.897203 250,3.99828427 L250,68.0017157 C250,69.1053377 249.102974,70 247.995053,70 L227.000695,70 C226.448026,70 225.773385,69.6183324 225.491796,69.1440773 L207,38 L207,67.9982567 C207,69.103789 206.097656,70 205.005439,70 L187.994561,70 C186.892996,70 186,69.102797 186,68.0017157 L186,3.99828427 Z"></path>
            <path class="hor-logo-D" d="M289.003595,70 C287.89704,70 287,69.102797 287,68.0017157 L287,3.99828427 C287,2.89466234 287.901627,2 289.000864,2 L310,2 C315.697701,2 320.829917,2.52824331 326,4 C330.61485,4.64124822 334.931667,6.46608873 339,9 C342.414263,11.6525553 345.404059,15.0941405 348,19 C349.880825,23.6742211 351,29.0847131 351,36 C351,41.5706512 349.92879,46.7250253 348,51 C345.643885,55.4331668 342.781995,59.0028109 339,62 C335.619168,64.5734603 331.494209,66.6384114 327,68 C322.156953,69.3276903 317.296537,70 312,70 L289.003595,70 Z M308,21 L308,51 L312,51 C317.633054,51 321.775215,49.7914028 325,46.862069 C327.55506,44.9569416 329,41.0000275 329,35.4827586 C329,30.933752 327.55506,27.3741849 325,25.137931 C321.775215,22.2748217 317.922042,21 313,21 L308,21 Z"></path>
            <path class="hor-logo-I" d="M385,3.99828427 C385,2.89466234 385.889674,2 386.991155,2 L405.008845,2 C406.10853,2 407,2.897203 407,3.99828427 L407,68.0017157 C407,69.1053377 406.110326,70 405.008845,70 L386.991155,70 C385.89147,70 385,69.102797 385,68.0017157 L385,3.99828427 Z"></path>
            <path class="hor-logo-C" d="M442.856,36.016 C442.856,30.5759728 443.81599,25.6480221 445.736,21.232 C447.65601,16.8159779 450.279983,13.0400157 453.608,9.904 C456.936017,6.76798432 460.855977,4.35200848 465.368,2.656 C469.880023,0.95999152 474.695974,0.112 479.816,0.112 C485.064026,0.112 490.023977,0.95999152 494.696,2.656 C498.820345,4.15319389 502.346146,6.11170402 505.273483,8.53157763 C505.662208,8.85291623 505.273483,8.53157763 505.273483,8.53157763 C505.900059,9.07746823 505.841197,10.2032696 505.127017,11.0641982 L492.392,26.416 C491.111994,24.7519917 489.51201,23.4880043 487.592,22.624 C485.67199,21.7599957 483.528012,21.328 481.16,21.328 C479.23999,21.328 477.448008,21.6639966 475.784,22.336 C474.119992,23.0080034 472.664006,23.9839936 471.416,25.264 C470.167994,26.5440064 469.192004,28.0959909 468.488,29.92 C467.783996,31.7440091 467.432,33.7759888 467.432,36.016 C467.432,38.2560112 467.799996,40.2559912 468.536,42.016 C469.272004,43.7760088 470.263994,45.2959936 471.512,46.576 C472.760006,47.8560064 474.215992,48.8319966 475.88,49.504 C477.544008,50.1760034 479.303991,50.512 481.16,50.512 C483.784013,50.512 486.039991,49.9680054 487.928,48.88 C489.203164,48.1451596 490.295851,47.3227434 491.206073,46.4127396 C491.643526,45.9753909 491.749033,45.8147865 491.749033,45.8147865 C492.104134,45.3868837 492.684744,45.3908919 493.030659,45.8055162 L505.127017,60.3045756 C505.834485,61.1525671 505.765272,62.4535804 505.285088,62.9068562 C505.285088,62.9068562 505.430593,62.7755039 505.285088,62.9068562 C502.430277,65.4839884 499.028607,67.5763529 495.08,69.184 C490.599978,71.0080091 485.512028,71.92 479.816,71.92 C474.695974,71.92 469.880023,71.0560086 465.368,69.328 C460.855977,67.5999914 456.936017,65.1520158 453.608,61.984 C450.279983,58.8159842 447.65601,55.0400219 445.736,50.656 C443.81599,46.2719781 442.856,41.3920269 442.856,36.016 Z"></path>
            <path class="hor-logo-A" d="M557.263812,3.85410228 C557.670398,2.83010986 558.898212,2 559.990795,2 L576.009205,2 C577.108691,2 578.331639,2.83523837 578.736188,3.85410228 L604.263812,68.1458977 C604.670398,69.1698901 604.098373,70 602.999136,70 L582,70 L578,60 L557,60 L553,70 L532.991155,70 C531.89147,70 531.331639,69.1647616 531.736188,68.1458977 L557.263812,3.85410228 Z M568,28 L563,43 L573,43 L568,28 Z"></path>
            <path class="hor-logo-T" d="M666,68.0031484 C666,69.1059791 665.110326,70 664.008845,70 L645.991155,70 C644.89147,70 644,69.1076847 644,68.0031484 L644,21 L629.000106,21 C627.895478,21 627,20.1090746 627,19.0025781 L627,3.99742191 C627,2.89427625 627.902308,2 628.99307,2 L681.00693,2 C682.107672,2 683,2.89092539 683,3.99742191 L683,19.0025781 C683,20.1057238 682.109942,21 680.999894,21 L666,21 L666,68.0031484 Z"></path>
            <path class="hor-logo-E" d="M716,3.99828427 C716,2.89466234 716.897676,2 717.99691,2 L767.00309,2 C768.105953,2 769,2.89092539 769,3.99742191 L769,19.0025781 C769,20.1057238 768.110738,21 766.998257,21 L737,21 L737,27 L765.008383,27 C766.108323,27 767,27.8926228 767,28.9950893 L767,43.0049107 C767,44.1067681 766.10216,45 765.008383,45 L737,45 L737,51 L767.997715,51 C769.103546,51 770,51.8909254 770,52.9974219 L770,68.0025781 C770,69.1057238 769.107783,70 767.99791,70 L718.00209,70 C716.896366,70 716,69.102797 716,68.0017157 L716,3.99828427 Z"></path>
        </g>
    </g>
</svg>
