<svg class="square-logo" width="416px" height="416px" viewBox="0 0 416 416" version="1.1" xmlns="http://www.w3.org/2000/svg" xmlns:xlink="http://www.w3.org/1999/xlink">
    <g>
        <polygon class="square-logo-border" points="288 0 416 0 416 416 0 416 0 0 128 0 128 15 15 15 15 401 401 401 401 15 288 15"></polygon>
        <g class="square-logo-the">
            <path d="M176,7 L176,26 L169,26 L169,7 L162,7 L162,1 L183,1 L183,7 L176,7 Z M212,26 L212,16 L204,16 L204,26 L197,26 L197,1 L204,1 L204,10 L212,10 L212,1 L219,1 L219,26 L212,26 Z M236,26 L236,1 L253,1 L253,6 L243,6 L243,11 L253,11 L253,16 L243,16 L243,21 L254,21 L254,26 L236,26 Z" class="path-1"></path>
        </g>
        <g class="square-logo-letters" transform="translate(59.000000, 62.000000)">
            <path class="square-logo-S" d="M36.3809524,72 C33.65078,72 30.9682671,71.7593607 28.3333333,71.2780749 C25.6983995,70.796789 23.1587424,70.0909137 20.7142857,69.1604278 C18.269829,68.2299419 15.9682648,67.1390437 13.8095238,65.8877005 C12.4507777,65.1000851 11.1800801,64.2552775 9.99741658,63.3532673 C9.30109459,62.8221867 9.5344045,62.9872588 9.5344045,62.9872588 C8.68697629,62.2766207 8.60225768,61.0372628 9.349259,60.2145834 L21.1434618,47.2255189 C21.5113177,46.8203958 22.1184413,46.8125692 22.5152385,47.2137553 C22.5152385,47.2137553 22.3835121,47.0949196 22.6947639,47.3874735 C24.1548921,48.7598879 25.9709113,50.0014879 28.1428571,51.1122995 C30.777791,52.4598998 33.4920495,53.1336898 36.2857143,53.1336898 C37.5555619,53.1336898 38.7142805,52.9090932 39.7619048,52.459893 C40.809529,52.0106929 41.3333333,51.1764767 41.3333333,49.9572193 C41.3333333,49.3155048 41.1587319,48.7700557 40.8095238,48.3208556 C40.4603157,47.8716555 39.8412743,47.4064195 38.952381,46.9251337 C38.0634876,46.4438479 36.8412776,45.9144414 35.2857143,45.3368984 C33.730151,44.7593554 31.7777895,44.0855653 29.4285714,43.315508 C27.1428457,42.5454507 24.9523914,41.6310213 22.8571429,40.5721925 C20.7618943,39.5133637 18.90477,38.2139114 17.2857143,36.6737968 C15.6666586,35.1336821 14.3809571,33.2887808 13.4285714,31.1390374 C12.4761857,28.9892941 12,26.4064322 12,23.3903743 C12,19.155059 12.8571343,15.5615121 14.5714286,12.6096257 C16.2857229,9.65773925 18.49205,7.23530358 21.1904762,5.34224599 C23.8889024,3.4491884 26.9206181,2.08556567 30.2857143,1.2513369 C33.6508105,0.417108128 36.9841105,0 40.2857143,0 C44.730181,0 49.2539452,0.866301497 53.8571429,2.59893048 C57.7888968,4.07883021 61.3153005,6.12049577 64.4364294,8.72397395 C64.9694389,9.16858183 64.501078,8.77825134 64.501078,8.77825134 C65.3289098,9.51207238 65.3761581,10.7502466 64.609919,11.5403787 L52.603747,23.9209303 C52.2177082,24.3190066 51.6172792,24.3032049 51.2462666,23.8767689 C51.2462666,23.8767689 51.1559306,23.7475035 50.7515569,23.3403157 C49.4650934,22.0448994 47.9764874,21.0188113 46.2857143,20.2620321 C44.063481,19.2673747 42.063501,18.7700535 40.2857143,18.7700535 C38.6349124,18.7700535 37.3015924,19.0106928 36.2857143,19.4919786 C35.2698362,19.9732644 34.7619048,20.7593528 34.7619048,21.8502674 C34.7619048,22.8770105 35.285709,23.6470563 36.3333333,24.1604278 C37.3809576,24.6737994 39.0793533,25.3155042 41.4285714,26.0855615 C43.8412819,26.8556188 46.380939,27.7540056 49.047619,28.7807487 C51.714299,29.8074918 54.1745919,31.1390293 56.4285714,32.7754011 C58.682551,34.4117729 60.5396752,36.4171004 62,38.7914439 C63.4603248,41.1657873 64.1904762,44.1176294 64.1904762,47.6470588 C64.1904762,51.7540312 63.3809605,55.3315356 61.7619048,58.3796791 C60.142849,61.4278227 58.0158862,63.9625567 55.3809524,65.9839572 C52.7460186,68.0053577 49.7777943,69.513364 46.4761905,70.5080214 C43.1745867,71.5026788 39.809541,72 36.3809524,72 Z"></path>
            <path class="square-logo-Y" d="M161,67.9926701 C161,69.1012878 160.102974,70 158.995053,70 L139.004947,70 C137.897645,70 137,69.1016617 137,67.9926701 L137,43 L113.04239,3.70952 C112.466694,2.76537817 112.894979,2 113.997005,2 L136.9967,2 C137.550807,2 138.219729,2.39950758 138.479729,2.87223526 L149,22 L159.520271,2.87223526 C159.785218,2.39051303 160.451279,2 161.0033,2 L184.002995,2 C185.105911,2 185.533886,2.76442658 184.95761,3.70952 L161,43 L161,67.9926701 Z"></path>
            <path class="square-logo-N" d="M229,3.99828427 C229,2.89466234 229.901627,2 231.000864,2 L250.996929,2 C251.55091,2 252.21995,2.39359396 252.488759,2.87462136 L271,36 L271,3.9999204 C271,2.89539486 271.889674,2 272.991155,2 L291.008845,2 C292.10853,2 293,2.897203 293,3.99828427 L293,68.0017157 C293,69.1053377 292.102974,70 290.995053,70 L270.000695,70 C269.448026,70 268.773385,69.6183324 268.491796,69.1440773 L250,38 L250,67.9982567 C250,69.103789 249.097656,70 248.005439,70 L230.994561,70 C229.892996,70 229,69.102797 229,68.0017157 L229,3.99828427 Z"></path>
            <path class="square-logo-D" d="M7.00359486,180 C5.89703997,180 5,179.102797 5,178.001716 L5,113.998284 C5,112.894662 5.90162726,112 7.00086422,112 L28,112 C33.6977013,112 38.8299174,112.528243 44,114 C48.61485,114.641248 52.9316673,116.466089 57,119 C60.4142629,121.652555 63.4040586,125.094141 66,129 C67.8808251,133.674221 69,139.084713 69,146 C69,151.570651 67.9287898,156.725025 66,161 C63.6438846,165.433167 60.7819947,169.002811 57,172 C53.6191681,174.57346 49.4942094,176.638411 45,178 C40.1569534,179.32769 35.2965369,180 30,180 L7.00359486,180 Z M26,131 L26,161 L30,161 C35.6330545,161 39.7752149,159.791403 43,156.862069 C45.5550603,154.956942 47,151.000027 47,145.482759 C47,140.933752 45.5550603,137.374185 43,135.137931 C39.7752149,132.274822 35.9220424,131 31,131 L26,131 Z"></path>
            <path class="square-logo-I" d="M138,113.998284 C138,112.894662 138.889674,112 139.991155,112 L158.008845,112 C159.10853,112 160,112.897203 160,113.998284 L160,178.001716 C160,179.105338 159.110326,180 158.008845,180 L139.991155,180 C138.89147,180 138,179.102797 138,178.001716 L138,113.998284 Z"></path>
            <path class="square-logo-C" d="M228.856,146.016 C228.856,140.575973 229.81599,135.648022 231.736,131.232 C233.65601,126.815978 236.279983,123.040016 239.608,119.904 C242.936017,116.767984 246.855977,114.352008 251.368,112.656 C255.880023,110.959992 260.695974,110.112 265.816,110.112 C271.064026,110.112 276.023977,110.959992 280.696,112.656 C284.820345,114.153194 288.346146,116.111704 291.273483,118.531578 C291.662208,118.852916 291.273483,118.531578 291.273483,118.531578 C291.900059,119.077468 291.841197,120.20327 291.127017,121.064198 L278.392,136.416 C277.111994,134.751992 275.51201,133.488004 273.592,132.624 C271.67199,131.759996 269.528012,131.328 267.16,131.328 C265.23999,131.328 263.448008,131.663997 261.784,132.336 C260.119992,133.008003 258.664006,133.983994 257.416,135.264 C256.167994,136.544006 255.192004,138.095991 254.488,139.92 C253.783996,141.744009 253.432,143.775989 253.432,146.016 C253.432,148.256011 253.799996,150.255991 254.536,152.016 C255.272004,153.776009 256.263994,155.295994 257.512,156.576 C258.760006,157.856006 260.215992,158.831997 261.88,159.504 C263.544008,160.176003 265.303991,160.512 267.16,160.512 C269.784013,160.512 272.039991,159.968005 273.928,158.88 C275.203164,158.14516 276.295851,157.322743 277.206073,156.41274 C277.643526,155.975391 277.749033,155.814787 277.749033,155.814787 C278.104134,155.386884 278.684744,155.390892 279.030659,155.805516 L291.127017,170.304576 C291.834485,171.152567 291.765272,172.45358 291.285088,172.906856 C291.285088,172.906856 291.430593,172.775504 291.285088,172.906856 C288.430277,175.483988 285.028607,177.576353 281.08,179.184 C276.599978,181.008009 271.512028,181.92 265.816,181.92 C260.695974,181.92 255.880023,181.056009 251.368,179.328 C246.855977,177.599991 242.936017,175.152016 239.608,171.984 C236.279983,168.815984 233.65601,165.040022 231.736,160.656 C229.81599,156.271978 228.856,151.392027 228.856,146.016 Z"></path>
            <path class="square-logo-A" d="M26.2638123,223.854102 C26.6703976,222.83011 27.8982124,222 28.9907951,222 L45.0092049,222 C46.1086907,222 47.3316388,222.835238 47.7361877,223.854102 L73.2638123,288.145898 C73.6703976,289.16989 73.0983727,290 71.9991358,290 L51,290 L47,280 L26,280 L22,290 L1.991155,290 C0.891470458,290 0.331638766,289.164762 0.736187669,288.145898 L26.2638123,223.854102 Z M37,248 L32,263 L42,263 L37,248 Z"></path>
            <path class="square-logo-T" d="M160,288.003148 C160,289.105979 159.110326,290 158.008845,290 L139.991155,290 C138.89147,290 138,289.107685 138,288.003148 L138,241 L123.000106,241 C121.895478,241 121,240.109075 121,239.002578 L121,223.997422 C121,222.894276 121.902308,222 122.99307,222 L175.00693,222 C176.107672,222 177,222.890925 177,223.997422 L177,239.002578 C177,240.105724 176.109942,241 174.999894,241 L160,241 L160,288.003148 Z"></path>
            <path class="square-logo-E" d="M234,223.998284 C234,222.894662 234.897676,222 235.99691,222 L285.00309,222 C286.105953,222 287,222.890925 287,223.997422 L287,239.002578 C287,240.105724 286.110738,241 284.998257,241 L255,241 L255,247 L283.008383,247 C284.108323,247 285,247.892623 285,248.995089 L285,263.004911 C285,264.106768 284.10216,265 283.008383,265 L255,265 L255,271 L285.997715,271 C287.103546,271 288,271.890925 288,272.997422 L288,288.002578 C288,289.105724 287.107783,290 285.99791,290 L236.00209,290 C234.896366,290 234,289.102797 234,288.001716 L234,223.998284 Z"></path>
        </g>
    </g>
</svg>
